<?xml version="1.0" standalone="no"?>
<!DOCTYPE svg PUBLIC "-//W3C//DTD SVG 20010904//EN"
 "http://www.w3.org/TR/2001/REC-SVG-20010904/DTD/svg10.dtd">
<svg version="1.0" xmlns="http://www.w3.org/2000/svg"
 width="1024.000000pt" height="1024.000000pt" viewBox="0 0 1024.000000 1024.000000"
 preserveAspectRatio="xMidYMid meet">

<g transform="translate(0.000000,1024.000000) scale(0.100000,-0.100000)"
fill="#000000" stroke="none">
<path d="M1138 6660 c-67 -20 -150 -100 -177 -171 -6 -16 -10 -358 -12 -895
-2 -787 -1 -873 14 -907 25 -58 74 -114 125 -145 l47 -27 498 -3 497 -3 0
-114 c0 -62 -4 -125 -10 -139 -17 -46 -40 -51 -258 -52 -201 -1 -203 -1 -227
-25 -27 -26 -29 -37 -27 -121 l2 -58 725 0 725 0 0 74 c0 64 -3 79 -23 102
l-24 27 -174 -2 c-191 -2 -263 7 -284 35 -11 14 -14 52 -15 146 l0 127 493 3
492 3 46 27 c57 34 105 87 130 145 18 43 19 82 19 896 0 975 6 912 -88 1004
-89 89 5 83 -1311 82 -636 0 -1168 -4 -1183 -9z m2358 -169 c67 -41 64 -5 64
-870 l0 -781 -1225 0 -1225 0 0 785 c0 867 -3 825 63 865 31 19 59 20 1162 20
1088 0 1131 -1 1161 -19z"/>
<path d="M1460 6279 c-81 -32 -132 -136 -110 -220 27 -98 147 -165 235 -130
16 7 36 -7 108 -78 l89 -86 -5 -51 c-3 -32 -1 -56 6 -63 8 -8 -15 -38 -93
-116 -103 -103 -105 -104 -142 -98 -113 18 -221 -98 -202 -216 8 -48 67 -122
114 -141 44 -18 128 -8 172 21 65 42 99 131 79 203 l-10 38 96 91 c94 90 96
92 155 99 109 13 168 74 168 173 0 106 -102 188 -204 165 l-41 -9 -83 82 -82
82 6 46 c19 141 -127 259 -256 208z"/>
<path d="M2765 6238 c-2 -7 -9 -40 -15 -72 -5 -33 -11 -60 -12 -61 -13 -9
-142 -65 -150 -65 -5 0 -36 19 -70 41 l-60 41 -69 -68 c-38 -38 -69 -72 -69
-76 0 -4 16 -32 35 -62 19 -30 35 -59 35 -65 0 -5 -13 -42 -29 -82 -31 -77
-37 -82 -113 -93 -25 -4 -52 -13 -58 -21 -13 -15 -11 -167 2 -180 4 -4 37 -14
74 -23 67 -17 68 -18 84 -62 9 -25 22 -61 30 -81 12 -34 11 -38 -24 -90 -20
-29 -36 -61 -36 -69 0 -9 31 -46 69 -84 l68 -68 67 42 67 42 77 -34 77 -35 9
-66 8 -67 109 0 109 0 0 34 c0 55 12 97 29 103 9 3 45 19 80 35 l63 30 60 -42
c50 -35 62 -40 72 -29 7 8 41 45 76 82 37 39 60 71 54 75 -19 14 -74 96 -74
112 0 9 4 20 9 25 5 6 18 37 29 70 l20 60 59 10 58 11 3 106 c3 119 8 110 -76
123 -27 4 -45 13 -49 23 -3 10 -16 45 -30 79 l-25 61 36 60 c20 33 36 63 36
68 0 5 -30 39 -67 76 l-66 67 -59 -40 -58 -40 -83 33 -84 33 -12 73 -12 72
-100 0 c-71 0 -101 -4 -104 -12z m242 -384 c62 -30 117 -88 150 -161 22 -47
24 -65 21 -141 -4 -105 -29 -161 -100 -228 -66 -62 -118 -84 -200 -84 -97 0
-170 29 -234 95 -71 71 -97 143 -92 245 5 86 23 130 80 195 95 108 249 140
375 79z"/>
<path d="M4540 5907 c-305 -104 -434 -457 -278 -760 149 -287 551 -356 792
-136 102 93 147 194 162 358 l7 81 -252 0 -251 0 0 -85 0 -85 140 0 139 0 -15
-42 c-45 -129 -169 -195 -316 -168 -169 30 -266 170 -256 369 6 100 28 159 85
222 58 64 120 89 224 89 76 0 93 -4 148 -31 40 -20 70 -44 84 -65 l22 -34 108
0 c59 0 107 4 107 8 0 16 -72 128 -103 160 -49 52 -113 93 -186 118 -93 33
-266 34 -361 1z"/>
<path d="M6403 5916 c-164 -53 -247 -209 -199 -370 31 -102 105 -154 295 -206
167 -45 195 -63 216 -138 4 -14 -1 -39 -15 -66 -25 -52 -72 -76 -150 -76 -85
0 -148 40 -171 107 l-11 33 -100 0 -100 0 7 -47 c20 -132 126 -236 270 -262
273 -51 479 87 479 319 -1 83 -20 133 -70 184 -40 39 -62 49 -227 99 -80 25
-159 53 -176 63 -67 39 -69 130 -3 179 20 15 43 19 98 20 86 0 118 -18 149
-83 l20 -41 94 -1 94 0 -6 49 c-11 96 -65 172 -154 216 -53 28 -67 30 -178 32
-80 2 -134 -2 -162 -11z"/>
<path d="M5400 5410 l0 -510 320 0 320 0 0 90 0 90 -220 0 -220 0 0 120 0 120
200 0 200 0 0 90 0 90 -200 0 -200 0 0 120 0 120 220 0 220 0 0 90 0 90 -320
0 -320 0 0 -510z"/>
<path d="M6982 5903 c3 -10 82 -223 175 -473 94 -250 177 -472 184 -492 l13
-38 111 0 110 0 74 203 c64 175 277 750 296 800 7 16 -2 17 -103 17 l-110 0
-71 -207 c-40 -115 -100 -289 -134 -387 -33 -99 -62 -175 -64 -170 -2 5 -61
178 -132 384 l-129 375 -112 3 c-104 2 -112 1 -108 -15z"/>
<path d="M8080 5410 l0 -510 100 0 100 0 0 510 0 510 -100 0 -100 0 0 -510z"/>
<path d="M8480 5410 l0 -510 100 0 100 0 0 343 0 342 227 -342 227 -343 98 0
98 0 0 510 0 510 -100 0 -100 0 -2 -337 -3 -337 -223 337 -224 337 -99 0 -99
0 0 -510z"/>
</g>
</svg>
